<svg xmlns="http://www.w3.org/2000/svg" viewBox="0 0 18.992 20.006"><path d="M10.889,13.009a1,1,0,0,0-.917,1.077q.028.356.028.714v4.206a1,1,0,0,0,2,0V14.8q0-.44-.034-.873A1,1,0,0,0,10.889,13.009Z"/><path d="M3.864,2.618A4,4,0,0,1,10,6.006a1,1,0,0,0,2,0A6,6,0,0,0,2.773.942,6.009,6.009,0,0,0,1.248,9.67,11.176,11.176,0,0,0,0,14.8v4.206a1,1,0,0,0,2,0V14.8a9.178,9.178,0,0,1,1.291-4.691A1.1,1.1,0,0,0,3.13,8.792a4.006,4.006,0,0,1,.734-6.174Z"/><path d="M18.986,10.142a1.032,1.032,0,0,0,.006-.136,1.009,1.009,0,0,0-.006-.135.871.871,0,0,0-.031-.132.889.889,0,0,0-.044-.132c-.007-.016-.008-.033-.016-.048s-.036-.05-.052-.076-.025-.053-.043-.077l-3-4a1,1,0,1,0-1.6,1.2l1.8,2.4H7a1,1,0,0,0,0,2h9l-1.8,2.4a1,1,0,1,0,1.6,1.2l3-4c.018-.024.027-.052.043-.077s.038-.048.052-.076.009-.032.016-.048a1.532,1.532,0,0,0,.075-.263Z"/></svg>