<svg xmlns="http://www.w3.org/2000/svg" viewBox="0 0 20.005 16"><path d="M19.371,6.033c-.613-.689-2.917-1.328-5.369-1.7V4A4,4,0,0,0,6,4v.342C3.547,4.72,1.231,5.363.634,6.033A2.326,2.326,0,0,0,.222,8.616l2.649,5.726A3.094,3.094,0,0,0,5.736,16l.149-.011a27.522,27.522,0,0,1,8.235,0l.149.011a3.093,3.093,0,0,0,2.864-1.657l2.65-5.728A2.324,2.324,0,0,0,19.371,6.033ZM8,4a2,2,0,0,1,4,0v.094C11.3,4.033,10.621,4,10,4s-1.295.034-2,.1Zm9.966,3.776L15.318,13.5a1.13,1.13,0,0,1-.983.5A29.489,29.489,0,0,0,5.67,14a1.127,1.127,0,0,1-.983-.5L2.037,7.776a.309.309,0,0,1,.023-.35A22.371,22.371,0,0,1,10,6a23.1,23.1,0,0,1,7.875,1.363A.34.34,0,0,1,17.968,7.776Z"/></svg>