<svg xmlns="http://www.w3.org/2000/svg" viewBox="0 0 19.614 20"><path d="M19.608,10.136a1.544,1.544,0,0,0,0-.272,1.532,1.532,0,0,0-.075-.263c-.007-.016-.008-.033-.016-.048s-.036-.05-.052-.076-.025-.053-.043-.077l-3-4a1,1,0,1,0-1.6,1.2l1.8,2.4h-9a1,1,0,0,0,0,2h9l-1.8,2.4a1,1,0,1,0,1.6,1.2l3-4c.018-.024.027-.052.043-.077s.038-.048.052-.076.009-.032.016-.048a1.532,1.532,0,0,0,.075-.263Z"/><path d="M6.616,2.055c1,.362,4.3,1.738,4.605,4.072A1,1,0,0,0,13.2,5.872C12.681,1.8,6.988,0,6.622,0L6.335.042c-.212.064-5.2,1.6-6.171,5.205C-.317,7.036.26,8.936,1.877,10.9A4.488,4.488,0,0,0,.623,14v5a1,1,0,0,0,2,0V14a2.654,2.654,0,0,1,1.151-2.116,1.087,1.087,0,0,0,.465-.781l.022-.54-.315-.335C2.374,8.553,1.751,7.053,2.1,5.77,2.615,3.828,5.3,2.517,6.616,2.055Z"/><path d="M11.623,13a1,1,0,0,0-1,1v5a1,1,0,0,0,2,0V14A1,1,0,0,0,11.623,13Z"/></svg>