<svg xmlns="http://www.w3.org/2000/svg" viewBox="0 0 13.251 20"><path d="M11.622,20a1,1,0,0,1-1-1V14a2.655,2.655,0,0,0-1.156-2.119L9.09,11.62,9.005,11.1a1.1,1.1,0,0,1,.295-.871c1.57-1.674,2.193-3.173,1.85-4.456-.52-1.945-3.217-3.257-4.528-3.719C5.313,2.513,2.616,3.825,2.1,5.77c-.344,1.283.279,2.783,1.851,4.458l.313.333L4.24,11.1a1.09,1.09,0,0,1-.461.783A2.651,2.651,0,0,0,2.622,14v5a1,1,0,0,1-2,0V14a4.48,4.48,0,0,1,1.255-3.1C.259,8.934-.317,7.035.164,5.247,1.135,1.64,6.123.106,6.335.042L6.622,0c.278,0,4.822,1.339,6.224,4.575.854,1.974.356,4.1-1.478,6.328A4.484,4.484,0,0,1,12.622,14v5A1,1,0,0,1,11.622,20ZM2.486,11.6l0,0Z"/></svg>