<svg xmlns="http://www.w3.org/2000/svg" viewBox="0 0 17.997 20"><path d="M17,3.427h0C16.907,1.075,12.813,0,9,0S1.093,1.075,1.008,3.427H1L0,17.111C0,19.792,6.889,20,9,20s9-.208,9-2.962ZM9,18c-3.938,0-6.389-.671-6.983-1.08L2.832,5.826A11.786,11.786,0,0,0,6.9,6.892a.969.969,0,0,0,.107,0,1,1,0,0,0,.1-1.994C4.239,4.6,3.076,3.743,3,3.518,3.122,3.1,5.156,2,9,2s5.878,1.1,6,1.482c-.029.1-.339.462-1.344.828a1,1,0,0,0,.684,1.879,7.546,7.546,0,0,0,.827-.359l.817,11.088C15.4,17.327,12.943,18,9,18Z"/><path d="M9.53,2.652A1,1,0,0,0,8.462,4.343C8.606,4.437,12,6.734,12,14a1,1,0,0,0,2,0C14,5.543,9.712,2.766,9.53,2.652Z"/></svg>