<svg xmlns="http://www.w3.org/2000/svg" viewBox="0 0 17.997 20"><path d="M17,3.427h0C16.907,1.075,12.813,0,9,0S1.093,1.075,1.008,3.427H1L0,17.111C0,19.792,6.889,20,9,20s9-.208,9-2.962ZM9,2c3.791,0,5.821,1.069,6,1.5-.13.319-1.286.989-3.419,1.314A7.888,7.888,0,0,0,9.53,2.652,1,1,0,0,0,8.462,4.343a4.652,4.652,0,0,1,.729.65C9.124,4.994,9.067,5,9,5,5.156,5,3.122,3.9,3,3.518,3.122,3.1,5.156,2,9,2ZM9,18c-3.938,0-6.389-.671-6.983-1.08L2.831,5.829A14.6,14.6,0,0,0,9,7c.508,0,1.022-.02,1.53-.059A15.272,15.272,0,0,1,12,14a1,1,0,0,0,2,0,17.823,17.823,0,0,0-1.395-7.337,10.131,10.131,0,0,0,2.564-.834l.817,11.089C15.4,17.327,12.943,18,9,18Z"/></svg>