<svg xmlns="http://www.w3.org/2000/svg" width="347.22" height="58.96" viewBox="0 0 347.22 58.96"><g id="e730dcd8-3105-4959-bdd7-4c880d99c679" data-name="Layer 2"><g id="a2d28f7c-d4b2-4b9b-9cbf-5e160d76ef1f" data-name="Layer 2"><path d="M26.29,27.9,8,37.89,26.3,48a2.78,2.78,0,0,1,1.43,2.43v.23a2.78,2.78,0,0,1-4.14,2.42L1.53,40.64a3,3,0,0,1,0-5.23L23.6,23a2.77,2.77,0,0,1,4.13,2.42h0A2.78,2.78,0,0,1,26.29,27.9Z"/><path d="M320.93,27.9l18.32,10L320.92,48a2.78,2.78,0,0,0-1.43,2.43v.23a2.78,2.78,0,0,0,4.14,2.42l22.06-12.45a3,3,0,0,0,0-5.23L323.62,23a2.77,2.77,0,0,0-4.13,2.42h0A2.78,2.78,0,0,0,320.93,27.9Z"/><path d="M58.07,47.05H54.36V23.13H40.65a3.11,3.11,0,0,0,0,6.21h7.08V47.05H40.65a3.11,3.11,0,0,0,0,6.21H58.07a3.11,3.11,0,0,0,0-6.21Z"/><path d="M89.19,41.69H89A3.33,3.33,0,0,0,85.85,44v0a5.43,5.43,0,0,1-1.33,2.08,7,7,0,0,1-2.47,1.51,10.88,10.88,0,0,1-3.77.57,8.65,8.65,0,0,1-3.16-.6,7.82,7.82,0,0,1-2.71-1.81,8.66,8.66,0,0,1-1.87-3.11,12.9,12.9,0,0,1-.69-4.42,13.12,13.12,0,0,1,.69-4.49,8.74,8.74,0,0,1,1.9-3.14,7.6,7.6,0,0,1,2.83-1.83,9.83,9.83,0,0,1,3.5-.61,8.63,8.63,0,0,1,5.39,1.6,5.06,5.06,0,0,1,1.76,2.48,3.11,3.11,0,0,0,1.21,1.59,3.38,3.38,0,0,0,5.16-3.77c-.12-.34-.24-.67-.39-1A10,10,0,0,0,89,25.3,12.66,12.66,0,0,0,84.52,23a21.08,21.08,0,0,0-5.81-.75,18.67,18.67,0,0,0-6.3,1,13.64,13.64,0,0,0-4.94,3,14.13,14.13,0,0,0-3.26,5A18.57,18.57,0,0,0,63,38.2a19.19,19.19,0,0,0,1.17,7,13.87,13.87,0,0,0,3.26,5,13.09,13.09,0,0,0,4.91,3,19.06,19.06,0,0,0,6.15,1,21.23,21.23,0,0,0,5.63-.72,13,13,0,0,0,4.58-2.23,10.37,10.37,0,0,0,3.07-3.86A9.11,9.11,0,0,0,92.32,46,3.3,3.3,0,0,0,89.19,41.69Z"/><path d="M126.91,31.45a14,14,0,0,0-3.34-5,14.93,14.93,0,0,0-5.06-3.11,19.27,19.27,0,0,0-12.72,0,14.84,14.84,0,0,0-5.06,3.11,13.83,13.83,0,0,0-3.34,5,17.42,17.42,0,0,0-1.21,6.69A18.11,18.11,0,0,0,97.39,45a13.9,13.9,0,0,0,3.34,5,14.09,14.09,0,0,0,5.06,3,20.34,20.34,0,0,0,12.72,0,14.17,14.17,0,0,0,5.06-3,14,14,0,0,0,3.34-5,18.11,18.11,0,0,0,1.21-6.89A17.42,17.42,0,0,0,126.91,31.45Zm-6.36,11.23a8.72,8.72,0,0,1-2,3,8.16,8.16,0,0,1-2.93,1.78,10.82,10.82,0,0,1-6.93,0,8.21,8.21,0,0,1-2.92-1.78,8.88,8.88,0,0,1-2-3,11.67,11.67,0,0,1-.75-4.42,12.17,12.17,0,0,1,.75-4.49,8.78,8.78,0,0,1,2-3.11,8,8,0,0,1,2.92-1.77,10.64,10.64,0,0,1,6.93,0,8,8,0,0,1,2.93,1.77,8.63,8.63,0,0,1,2,3.11,12,12,0,0,1,.76,4.49A11.47,11.47,0,0,1,120.55,42.68Z"/><path d="M158,25.5q-2.74-3-7.69-2.95a12.31,12.31,0,0,0-5.78,1.32,8.89,8.89,0,0,0-3.92,4.28h-.9l-.15-1.69a3.37,3.37,0,0,0-6.72.3V50.68a3.4,3.4,0,0,0,3.41,3.4h.05a3.4,3.4,0,0,0,3.41-3.4V37.37q0-4.34,2.11-6.66a7.21,7.21,0,0,1,5.6-2.32,6.44,6.44,0,0,1,4.91,1.69q1.6,1.68,1.6,5.48V50.68a3.4,3.4,0,0,0,3.4,3.4h0a3.4,3.4,0,0,0,3.41-3.4V33.33A11.09,11.09,0,0,0,158,25.5Z"/><path d="M218.25,47.05H214a4.82,4.82,0,0,1-3.41-.93,4.29,4.29,0,0,1-.93-3.1V29.34h8.76a3.11,3.11,0,1,0,0-6.21h-8.76V15.66a3.37,3.37,0,0,0-3.37-3.37h0a3.37,3.37,0,0,0-3.38,3.37v7.47h-3.12a3.22,3.22,0,0,0-3.27,2.94,3.12,3.12,0,0,0,3.1,3.27h3.29V44.1a13.2,13.2,0,0,0,.48,3.62A7.08,7.08,0,0,0,205,50.64a7.74,7.74,0,0,0,3,1.93,12.8,12.8,0,0,0,4.49.69h5.93a3.11,3.11,0,0,0,3-3.81A3.23,3.23,0,0,0,218.25,47.05Z"/><path d="M253.33,30.45a12.38,12.38,0,0,0-3-4.43,13.43,13.43,0,0,0-4.64-2.77,17.11,17.11,0,0,0-5.81-1,18.18,18.18,0,0,0-6.3,1.05,13.57,13.57,0,0,0-4.91,3.08,13.77,13.77,0,0,0-3.19,5,18.55,18.55,0,0,0-1.15,6.81,19.42,19.42,0,0,0,1.15,7,13.6,13.6,0,0,0,3.19,5,12.76,12.76,0,0,0,4.94,3,20,20,0,0,0,6.33,1,16,16,0,0,0,9.46-2.59,10.87,10.87,0,0,0,4-5.5,1.71,1.71,0,0,0-1.6-2.28h-3.22a1.7,1.7,0,0,0-1.53,1c-.11.2-.22.41-.34.61a5.43,5.43,0,0,1-1.42,1.5A7.67,7.67,0,0,1,243,47.9a10.94,10.94,0,0,1-3.22.42,11.51,11.51,0,0,1-3.38-.48,7.48,7.48,0,0,1-2.74-1.51,7.8,7.8,0,0,1-1.9-2.53,9,9,0,0,1-.78-3.62h23.14q.12-.84.21-1.83c.06-.67.09-1.32.09-2A15.3,15.3,0,0,0,253.33,30.45Zm-22.35,5a9.31,9.31,0,0,1,.9-3.4,6.78,6.78,0,0,1,1.9-2.32,7.83,7.83,0,0,1,2.68-1.33,12.13,12.13,0,0,1,3.26-.42,8.1,8.1,0,0,1,6.05,2.11,7.73,7.73,0,0,1,2.2,5.36Z"/><path d="M285.12,41.9A7,7,0,0,0,284,39.4a7.11,7.11,0,0,0-2.33-2,13.6,13.6,0,0,0-3.76-1.29L269,34.4a5.23,5.23,0,0,1-2.92-1.21,3.06,3.06,0,0,1-.69-2.11,2.67,2.67,0,0,1,1.44-2.41,9.66,9.66,0,0,1,4.64-.84,8.51,8.51,0,0,1,5.39,1.42,5,5,0,0,1,1.78,4.13v.42h6.75v-.67a10.82,10.82,0,0,0-.87-4.39,9.32,9.32,0,0,0-2.62-3.44,12.44,12.44,0,0,0-4.34-2.23,21,21,0,0,0-6-.78,21.32,21.32,0,0,0-5.09.57,12.19,12.19,0,0,0-4,1.72,8.52,8.52,0,0,0-2.65,2.8,7.61,7.61,0,0,0-1,3.89,11.12,11.12,0,0,0,.33,2.74,6.8,6.8,0,0,0,1.14,2.38,7.19,7.19,0,0,0,2.23,1.87,12.35,12.35,0,0,0,3.53,1.2l9,1.87a5.46,5.46,0,0,1,2.8,1.26,3.19,3.19,0,0,1,.81,2.29,2.87,2.87,0,0,1-1.53,2.75,11.35,11.35,0,0,1-5,.81A12,12,0,0,1,268.7,48a5.94,5.94,0,0,1-2.26-1.21,4.62,4.62,0,0,1-1.27-1.87h0a1.76,1.76,0,0,0-1.62-1.2h-3.72a1.71,1.71,0,0,0-1.66,2.1,11.74,11.74,0,0,0,.44,1.46A8.78,8.78,0,0,0,261,50.85a11.74,11.74,0,0,0,4.37,2.38,21.82,21.82,0,0,0,6.62.87,25.8,25.8,0,0,0,5.49-.54,12.68,12.68,0,0,0,4.24-1.69A7.92,7.92,0,0,0,284.49,49a8.81,8.81,0,0,0,1-4.25A11.85,11.85,0,0,0,285.12,41.9Z"/><path d="M42.3,6.06V2.52h3.54L48.36,0l2.52,2.52h3.54V6.06l2.52,2.52L54.42,11.1v3.54H50.88l-2.52,2.52-2.52-2.52H42.3V11.1L39.78,8.58Z" fill="#ff4f00"/><line x1="264.87" y1="43.73" x2="257.88" y2="43.73" fill="none"/><line x1="253.97" y1="43.73" x2="247.43" y2="43.73" fill="none"/><path d="M295.24,59a3.62,3.62,0,0,1-1.24-.23,3.5,3.5,0,0,1-2-4.52l14-36.78a3.5,3.5,0,0,1,6.54,2.49l-14,36.78A3.5,3.5,0,0,1,295.24,59Z" fill="#ff4f00"/><path d="M193.14,34.52a14.76,14.76,0,0,0-.76-4.82A9.85,9.85,0,0,0,190,25.81a11.23,11.23,0,0,0-4.34-2.59,20,20,0,0,0-6.53-.93,19.12,19.12,0,0,0-5,.66A12.75,12.75,0,0,0,169.73,25a10.59,10.59,0,0,0-3,3.58,11,11,0,0,0-1.14,5.19h6.63A5.46,5.46,0,0,1,174,29.61q1.77-1.66,5.39-1.66a9.87,9.87,0,0,1,3.28.48,6.11,6.11,0,0,1,2.2,1.3A4.76,4.76,0,0,1,186,31.6a6.72,6.72,0,0,1,.36,2.2v.9a43.68,43.68,0,0,0-11,1.12A19.42,19.42,0,0,0,169,38.56a7.82,7.82,0,0,0-2.92,3.55,10.64,10.64,0,0,0-.69,3.56,8.76,8.76,0,0,0,.75,3.76,7.14,7.14,0,0,0,2,2.62,8.76,8.76,0,0,0,3,1.54,12.78,12.78,0,0,0,3.65.51,12.33,12.33,0,0,0,6.72-1.77,11.16,11.16,0,0,0,4.12-4.43h1v2.94a3.26,3.26,0,1,0,6.51,0V34.52Zm-6.75,6a6.35,6.35,0,0,1-.88,2.89A9.72,9.72,0,0,1,183.34,46a10.84,10.84,0,0,1-3.19,1.9,10.54,10.54,0,0,1-3.89.72,5.11,5.11,0,0,1-3.1-.87A3.15,3.15,0,0,1,172,45.06a4,4,0,0,1,.66-2.13,5.42,5.42,0,0,1,2.29-1.87,16.87,16.87,0,0,1,4.4-1.33,43.53,43.53,0,0,1,7-.57Z"/></g></g></svg>