<svg xmlns="http://www.w3.org/2000/svg" width="1524.7" height="269.07" viewBox="0 0 1524.7 269.07"><g id="e0446b2c-c287-42df-b7d8-4732d902be36" data-name="Layer 2"><g id="b700955b-da6e-46e4-a8df-3bf88adac3f1" data-name="Layer 1"><path d="M62.63,116.75H0V78.57H103.4V225.71h41.88v38.17H0V225.71H62.63ZM58.37,8.15Q66.35,0,80.8,0q14.07,0,22,8.15t8,20.76q0,14.08-8,22.24t-22,8.15q-14.46,0-22.43-8.15t-8-21.87Q50.4,16.31,58.37,8.15Z"/><path d="M164,129.16A86.34,86.34,0,0,1,184,98.4,83.38,83.38,0,0,1,214.4,79.68a114.26,114.26,0,0,1,38.73-6.3A129.24,129.24,0,0,1,288.9,78a77.44,77.44,0,0,1,27.61,13.89,62,62,0,0,1,17.79,23.35q6.3,14.08,6.3,33H299.46q0-18.9-12.79-28.73T253.5,109.7A61.38,61.38,0,0,0,232,113.41a46.73,46.73,0,0,0-17.42,11.3A53.49,53.49,0,0,0,202.91,144q-4.26,11.67-4.26,27.61,0,15.56,4.26,27.24a53.06,53.06,0,0,0,11.49,19.08A47,47,0,0,0,231.08,229a52.89,52.89,0,0,0,19.46,3.71q13.71,0,23.16-3.52A41.79,41.79,0,0,0,288.9,220a33.11,33.11,0,0,0,8.15-12.78,44.32,44.32,0,0,0,2.41-14.46H340.6q0,20-6.86,34.47a64,64,0,0,1-18.9,23.72,80.8,80.8,0,0,1-28.17,13.71A129.56,129.56,0,0,1,252,269.07a116.65,116.65,0,0,1-37.8-5.93A80.81,80.81,0,0,1,184,245a84.46,84.46,0,0,1-20-30.58q-7.23-18.35-7.23-43.17Q156.77,147.5,164,129.16Z"/><path d="M368,129.72a86.13,86.13,0,0,1,20.57-30.58,90.83,90.83,0,0,1,31.13-19.09,117.94,117.94,0,0,1,78.2,0,90.83,90.83,0,0,1,31.13,19.09,86.13,86.13,0,0,1,20.57,30.58Q557,147.87,557,170.86q0,24.09-7.41,42.43a84,84,0,0,1-51.7,49.48,124.48,124.48,0,0,1-78.2,0A84,84,0,0,1,368,213.29q-7.41-18.34-7.41-42.43Q360.61,147.88,368,129.72ZM510.52,144a52.81,52.81,0,0,0-12.41-19.09,48.83,48.83,0,0,0-18-10.93,66.09,66.09,0,0,0-42.62,0,48.83,48.83,0,0,0-18,10.93A52.81,52.81,0,0,0,407.12,144q-4.64,11.67-4.63,27.61t4.63,27.24a53.49,53.49,0,0,0,12.41,18.71,48.86,48.86,0,0,0,18,10.94,66.27,66.27,0,0,0,42.62,0,48.86,48.86,0,0,0,18-10.94,53.49,53.49,0,0,0,12.41-18.71q4.63-11.31,4.63-27.24T510.52,144Z"/><path d="M628.19,107.85h5.56q8.52-18.16,24.09-26.31t35.58-8.16q30.39,0,47.25,18.16t16.87,48.18V263.88H715.66V153.44q0-23.35-9.82-33.73t-30.21-10.38q-21.5,0-34.47,14.27t-13,41v99.32H585.94V78.57H625.6Z"/><path d="M821.84,265.92a54.81,54.81,0,0,1-18.54-9.45,44.24,44.24,0,0,1-12.6-16.12q-4.62-9.82-4.63-23.17a65,65,0,0,1,4.26-21.86q4.26-11.87,18-21.87t39.28-16.86q25.57-6.85,67.83-6.86v-5.56a41.29,41.29,0,0,0-2.23-13.53,28.79,28.79,0,0,0-7.41-11.49,37,37,0,0,0-13.53-8q-8.34-3-20.19-3-22.24,0-33.18,10.19T828,144.17H787.18q0-18.52,7-31.87a64.86,64.86,0,0,1,18.72-22,78.54,78.54,0,0,1,26.69-12.79,117.39,117.39,0,0,1,30.94-4.08q23.73,0,40.22,5.75t26.68,15.93A61,61,0,0,1,952.29,119a92,92,0,0,1,4.64,29.65v48.55q0,13.71.55,23.72t1.67,17.79a135.72,135.72,0,0,0,2.6,13.71q1.47,5.94,3,11.49H922.83a65,65,0,0,1-4.26-16.31q-1.3-9.25-1.67-16.67H911q-8.15,16.31-25.39,27.24t-41.32,10.93A78,78,0,0,1,821.84,265.92Zm55.22-35a67.47,67.47,0,0,0,19.64-11.68A60.59,60.59,0,0,0,910,203.1a39.44,39.44,0,0,0,5.38-17.79v-8.15q-26.31.36-43.36,3.52T845,188.83q-10,5-14.08,11.49a24.46,24.46,0,0,0-4.08,13.16q0,11.11,7.23,16.49t19.08,5.37A64.84,64.84,0,0,0,877.06,230.9Z"/><path d="M977.68,116.75V78.57H1017V11.86h41.51V78.57h73v38.18h-73v84.13q0,13.34,5.75,19.08t20.94,5.75h46.33v38.17h-55.6q-16.31,0-27.61-4.26a47.13,47.13,0,0,1-18.34-11.86,43.72,43.72,0,0,1-10-18,80.55,80.55,0,0,1-3-22.24v-90.8Z"/><path d="M1205.61,263.14a78.75,78.75,0,0,1-30.4-18.16q-12.6-12.22-19.64-30.58t-7-43.17q0-23.73,7-41.88a85.87,85.87,0,0,1,19.64-30.58,83.56,83.56,0,0,1,30.21-18.9,111.15,111.15,0,0,1,38.73-6.49,105.08,105.08,0,0,1,35.77,5.93,83,83,0,0,1,28.53,17,76.09,76.09,0,0,1,18.72,27.24q6.67,16.13,6.67,36.51,0,5.92-.56,12T1332,183.46H1189.67q.38,13,4.82,22.23a47.65,47.65,0,0,0,11.67,15.57,45.89,45.89,0,0,0,16.87,9.27,70.41,70.41,0,0,0,20.75,3,67.13,67.13,0,0,0,19.83-2.59,47.2,47.2,0,0,0,13.9-6.67,32.52,32.52,0,0,0,8.71-9.27,53.09,53.09,0,0,0,5-10.75h40q-5.94,33-28.54,48.92t-58.19,15.94A122.49,122.49,0,0,1,1205.61,263.14Zm75.05-141.95q-12.79-13-37.25-13a73.87,73.87,0,0,0-20,2.6,47.74,47.74,0,0,0-16.5,8.15,41.41,41.41,0,0,0-11.67,14.27q-4.45,8.7-5.56,20.94h104.51Q1293.45,134.17,1280.66,121.19Z"/><path d="M1397.58,194.21v3.7a43.32,43.32,0,0,0,2.41,14.83,28.06,28.06,0,0,0,7.78,11.49,36.38,36.38,0,0,0,13.9,7.41q8.52,2.6,21.12,2.59,21.14,0,30.58-5t9.45-16.86q0-8.9-5-14.09t-17.24-7.78L1405.36,179q-13-2.59-21.68-7.41A42.45,42.45,0,0,1,1370,160.11a41.18,41.18,0,0,1-7-14.64,67.73,67.73,0,0,1-2-16.86q0-13.73,5.93-23.91a52.84,52.84,0,0,1,16.3-17.23,75.86,75.86,0,0,1,24.65-10.57,131,131,0,0,1,31.32-3.52q21.12,0,37.06,4.82t26.68,13.71A57,57,0,0,1,1519,113a66.55,66.55,0,0,1,5.37,27.05v4.08h-41.51v-2.59q0-16.68-10.93-25.39t-33.17-8.71q-19.65,0-28.54,5.19t-8.89,14.82q0,8.16,4.26,13t18,7.41L1478,158.63q14.09,3,23.17,8a43.33,43.33,0,0,1,14.27,12,42.8,42.8,0,0,1,7.22,15.38,72.24,72.24,0,0,1,2,17.23q0,15.19-5.93,26.13a48.91,48.91,0,0,1-16.86,18,79.48,79.48,0,0,1-26.13,10.38,157.84,157.84,0,0,1-33.73,3.33q-24.09,0-40.76-5.37t-26.87-14.64a54.73,54.73,0,0,1-14.83-21.87,77.77,77.77,0,0,1-4.63-27.06v-5.92Z"/></g></g></svg>